<svg xmlns="http://www.w3.org/2000/svg" width="625" height="598" viewBox="0 0 625 598" version="1.1">
	<path d="M 0 299.002 L 0 598.003 312.750 597.752 L 625.500 597.500 625.752 298.750 L 626.003 0 313.002 0 L 0 0 0 299.002 M 0.493 299.500 C 0.493 463.950, 0.609 531.076, 0.750 448.669 C 0.891 366.262, 0.891 231.712, 0.750 149.669 C 0.609 67.626, 0.493 135.050, 0.493 299.500 M 76.028 60.113 C 72.852 61.381, 72.034 62.739, 72.015 66.780 C 71.991 71.906, 72.894 73.825, 125.934 181.500 C 137.585 205.150, 150.039 230.589, 153.610 238.031 L 160.104 251.561 152.178 268.031 C 147.819 277.089, 138.402 296.650, 131.251 311.500 C 67.880 443.103, 67.993 442.853, 69.356 448.283 C 70.543 453.013, 73.920 453.500, 105.500 453.500 C 121.450 453.500, 136.635 453.135, 139.245 452.689 C 145.348 451.647, 149.351 448.228, 153.051 440.900 C 155.631 435.787, 179.346 382.597, 202.494 330 C 210.599 311.584, 211.472 310, 213.515 310 C 214.814 310, 216.149 312.863, 235.667 357.500 C 243.590 375.619, 247 384.078, 247 385.612 C 247 387.457, 237.903 410.640, 226.222 438.565 C 210.375 476.447, 211.162 478.260, 229.232 445.500 C 232.265 440, 244.771 417.275, 257.022 395 C 269.273 372.725, 283.279 347.343, 288.148 338.596 C 293.017 329.849, 297 321.918, 297 320.972 C 297 317.895, 294.446 311.948, 280.492 282.537 C 272.934 266.608, 266.764 252.658, 266.781 251.537 C 266.825 248.602, 269.738 242.560, 311.154 159.500 C 331.722 118.250, 350.267 80.794, 352.365 76.265 L 356.179 68.030 354.339 64.265 C 352.523 60.548, 352.405 60.490, 345 59.706 C 340.875 59.269, 324.866 59.044, 309.425 59.206 L 281.351 59.500 277.221 62.234 C 271.686 65.898, 268.567 72.620, 238.345 146 C 220.104 190.290, 214.667 202.185, 212.565 202.403 C 211.481 202.515, 212.025 203.770, 171.618 108 C 163.612 89.025, 156.035 71.507, 154.781 69.071 C 151.899 63.475, 148.413 60.914, 142.312 59.910 C 135.315 58.760, 78.987 58.932, 76.028 60.113 M 443.805 85.062 C 436.545 97.701, 389.345 182.900, 381.160 198.139 C 376.092 207.576, 376.031 207.791, 378.242 208.342 C 379.484 208.652, 391.750 209.175, 405.500 209.504 C 445.952 210.474, 450.334 211.423, 456.995 220.660 C 462.051 227.671, 463.392 235.046, 463.329 255.500 C 463.259 278.265, 462.039 285.924, 457.482 292.187 C 452.980 298.375, 447.093 301.707, 438.455 302.955 C 434.630 303.508, 416.624 303.969, 398.441 303.980 C 371.449 303.996, 365.026 303.740, 363.441 302.581 C 361.610 301.243, 361.480 299.492, 361.152 271.831 C 360.960 255.699, 360.451 241.864, 360.021 241.087 C 359.447 240.051, 358.300 241.122, 355.734 245.087 C 351.979 250.888, 335.150 281.037, 314.575 318.823 C 307.590 331.651, 299.492 346.276, 296.579 351.323 C 293.666 356.370, 290.094 362.848, 288.641 365.717 L 286 370.934 286 450.619 L 286 530.304 289.250 534.621 L 292.500 538.938 331 538.882 C 352.175 538.850, 392.450 538.470, 420.500 538.037 C 475.859 537.182, 474.974 537.272, 490 530.972 C 506.867 523.901, 523.421 507.765, 531.552 490.470 C 539.603 473.347, 541.375 458.949, 540.770 415.595 C 540.339 384.645, 540.233 383.229, 537.816 375.902 C 532.214 358.925, 518.127 344.876, 500.750 338.937 C 497.038 337.668, 494.010 336.376, 494.023 336.065 C 494.036 335.754, 497.205 333.723, 501.065 331.552 C 519.466 321.201, 530.640 306.345, 534.554 287.029 C 535.977 280.010, 536.159 274.338, 535.744 250.118 C 535.280 223.036, 535.107 220.936, 532.526 211 C 527.236 190.643, 516.230 172.646, 502.887 162.536 C 486.817 150.358, 464.510 144, 437.858 144 C 427.331 144, 425 143.528, 425 141.395 C 425 140.173, 436.863 110.199, 447.451 84.670 C 449.465 79.813, 450.947 75.341, 450.744 74.732 C 450.541 74.123, 447.418 78.771, 443.805 85.062 M 364.406 368.901 C 362.576 369.704, 362.230 370.982, 361.656 379.064 C 361.295 384.148, 361 407.090, 361 430.047 C 361 467.185, 361.174 471.853, 362.582 472.393 C 365.164 473.384, 435.780 473.068, 444.853 472.024 C 455.063 470.851, 458.382 469.028, 463.311 461.885 C 466.775 456.866, 467.205 455.503, 468.034 446.931 C 469.226 434.605, 469.198 401.499, 467.988 392.179 C 466.482 380.582, 459.152 372.027, 448.856 369.849 C 442.896 368.588, 367.058 367.737, 364.406 368.901" stroke="none" fill="black" fill-rule="evenodd"/>
</svg>